PathFileType	4	(X/Y/Z)	/tmp/tmpj5qvs57t//results/MarkerData/Run_5.trc
DataRate	CameraRate	NumFrames	NumMarkers	Units	OrigDataRate	OrigDataStartFrame	OrigNumFrames
100	100	10	42	m	100	387	516
Frame#	Time	C7			CLAV			LACR			LASI			LCAL			LFAradius			LFAsuperior			LFAulna			LLEL			LMEL			LMT5			LPSI			LTB1			LTB2			LTB3			LTH1			LTH2			LTH3			LTOE			LUA1			LUA2			LUA3			RACR			RASI			RCAL			RFAradius			RFAsuperior			RFAulna			RLEL			RMEL			RMT5			RPSI			RTB1			RTB2			RTB3			RTH1			RTH2			RTH3			RTOE			RUA1			RUA2			RUA3		
		X1	Y1	Z1	X2	Y2	Z2	X3	Y3	Z3	X4	Y4	Z4	X5	Y5	Z5	X6	Y6	Z6	X7	Y7	Z7	X8	Y8	Z8	X9	Y9	Z9	X10	Y10	Z10	X11	Y11	Z11	X12	Y12	Z12	X13	Y13	Z13	X14	Y14	Z14	X15	Y15	Z15	X16	Y16	Z16	X17	Y17	Z17	X18	Y18	Z18	X19	Y19	Z19	X20	Y20	Z20	X21	Y21	Z21	X22	Y22	Z22	X23	Y23	Z23	X24	Y24	Z24	X25	Y25	Z25	X26	Y26	Z26	X27	Y27	Z27	X28	Y28	Z28	X29	Y29	Z29	X30	Y30	Z30	X31	Y31	Z31	X32	Y32	Z32	X33	Y33	Z33	X34	Y34	Z34	X35	Y35	Z35	X36	Y36	Z36	X37	Y37	Z37	X38	Y38	Z38	X39	Y39	Z39	X40	Y40	Z40	X41	Y41	Z41	X42	Y42	Z42

388	3.98	0.651593	1.55178	-0.376111	0.773633	1.48397	-0.299691	0.767276	1.512	-0.506704	0.720992	0.980658	-0.464349	0.0959658	0.258677	-0.377422	0.915886	1.27391	-0.486873	0.875816	1.22638	-0.631179	0.937355	1.2107	-0.501865	0.789132	1.24021	-0.720652	0.735014	1.18834	-0.690167	0.157824	0.0742652	-0.477611	0.554446	1.08634	-0.384951	0.403797	0.441859	-0.432722	0.301351	0.421128	-0.486168	0.273622	0.283753	-0.425682	0.606401	0.883098	-0.522786	0.613178	0.752017	-0.50384	0.471451	0.669006	-0.487512	0.218471	0.070679	-0.409398	0.76554	1.41831	-0.615199	0.703858	1.33647	-0.634127	0.767687	1.31638	-0.676557	0.665458	1.52008	-0.177924	0.732193	1.02392	-0.221753	0.557623	0.399373	-0.276939	0.571948	1.04646	-0.0697359	0.452817	1.20768	-0.0320029	0.506923	1.02222	-0.0561191	0.435244	1.28743	-0.0439127	0.411166	1.27719	-0.121347	0.686855	0.23256	-0.196877	0.551953	1.08671	-0.30085	0.901751	0.538699	-0.253733	0.795974	0.499214	-0.201633	0.744743	0.411049	-0.262699	0.723336	0.919885	-0.152924	0.877022	0.859861	-0.176921	0.868838	0.738086	-0.182463	0.726674	0.238594	-0.283436	0.568684	1.44858	-0.107007	0.486324	1.3983	-0.149553	0.490606	1.36706	-0.0745956
389	3.99	0.653101	1.55562	-0.374315	0.773909	1.48874	-0.296203	0.770655	1.51828	-0.502134	0.723369	0.983768	-0.465569	0.0823699	0.288302	-0.378982	0.915413	1.28981	-0.48141	0.880552	1.23847	-0.625661	0.939951	1.2272	-0.494411	0.796746	1.24735	-0.717833	0.743365	1.1948	-0.687693	0.117412	0.0933271	-0.476153	0.558162	1.0917	-0.388338	0.388582	0.453556	-0.434879	0.285605	0.436911	-0.487892	0.253396	0.299374	-0.428866	0.606005	0.888204	-0.524553	0.607861	0.757183	-0.505219	0.463679	0.678752	-0.488152	0.181357	0.082463	-0.412098	0.771471	1.4254	-0.611338	0.709631	1.3437	-0.632037	0.774334	1.32387	-0.673503	0.664213	1.5244	-0.17669	0.73541	1.02794	-0.22512	0.596201	0.358619	-0.279649	0.565981	1.05742	-0.0673023	0.444135	1.21817	-0.0349403	0.500891	1.03276	-0.0548435	0.426859	1.2974	-0.0481178	0.405002	1.28725	-0.126196	0.743531	0.207721	-0.198875	0.55488	1.09235	-0.304341	0.91988	0.539203	-0.25275	0.819472	0.487049	-0.201843	0.780376	0.393376	-0.263608	0.724599	0.928297	-0.154113	0.876304	0.865896	-0.17569	0.869063	0.743344	-0.182793	0.783004	0.219186	-0.284858	0.564623	1.45553	-0.108717	0.481956	1.40933	-0.150945	0.485093	1.37594	-0.0765239
390	4	0.654771	1.55886	-0.372288	0.774915	1.4922	-0.292843	0.774058	1.52368	-0.497773	0.725091	0.986613	-0.466319	0.0665231	0.319139	-0.378815	0.914168	1.30145	-0.476248	0.884101	1.24844	-0.620803	0.941342	1.23958	-0.487907	0.803232	1.25373	-0.71536	0.750169	1.2009	-0.685671	0.0797593	0.119115	-0.47398	0.560969	1.09663	-0.390944	0.377168	0.462755	-0.437041	0.27342	0.451473	-0.489352	0.232666	0.316044	-0.429598	0.60595	0.893031	-0.52611	0.605382	0.762062	-0.507216	0.460164	0.68524	-0.489606	0.145495	0.102271	-0.41323	0.776813	1.43158	-0.607535	0.714647	1.35005	-0.6306	0.780268	1.33048	-0.670901	0.664008	1.52781	-0.175089	0.737508	1.03067	-0.227544	0.63741	0.317823	-0.282604	0.561763	1.06684	-0.0644837	0.437126	1.22707	-0.037805	0.496563	1.04154	-0.0535775	0.419989	1.30601	-0.0523702	0.400792	1.2954	-0.130983	0.800576	0.185039	-0.200141	0.556822	1.09718	-0.307069	0.935197	0.537654	-0.251688	0.841818	0.473102	-0.201645	0.815512	0.374982	-0.263524	0.723875	0.932657	-0.155118	0.873788	0.868862	-0.174389	0.867604	0.745537	-0.183052	0.839399	0.201719	-0.28533	0.562061	1.46171	-0.109921	0.479131	1.41892	-0.152782	0.480642	1.38349	-0.0789213
391	4.01	0.656613	1.56175	-0.370118	0.776447	1.49463	-0.289699	0.77758	1.52814	-0.493535	0.726644	0.989568	-0.466872	0.0489523	0.351673	-0.377684	0.912772	1.30805	-0.471236	0.886707	1.25551	-0.616711	0.941625	1.24673	-0.482297	0.808315	1.25931	-0.713086	0.754944	1.20669	-0.684061	0.0455184	0.150065	-0.470729	0.562996	1.10077	-0.392373	0.368516	0.469983	-0.439181	0.2639	0.465504	-0.490552	0.212853	0.334668	-0.428705	0.606681	0.897382	-0.527099	0.605667	0.766128	-0.509216	0.460282	0.688974	-0.492125	0.110811	0.128981	-0.411095	0.781649	1.43683	-0.603893	0.719075	1.35574	-0.629555	0.785384	1.33616	-0.668509	0.664542	1.53041	-0.173153	0.738406	1.03212	-0.228563	0.680711	0.277008	-0.285779	0.559282	1.07395	-0.0620929	0.432216	1.23391	-0.0402796	0.493999	1.04808	-0.0526811	0.415032	1.31272	-0.0562993	0.398652	1.30142	-0.135192	0.857276	0.164702	-0.200636	0.558008	1.10087	-0.308458	0.947212	0.533359	-0.249952	0.862361	0.457144	-0.200901	0.849532	0.356064	-0.262749	0.721809	0.93295	-0.155538	0.869269	0.868687	-0.173032	0.864816	0.744628	-0.183313	0.895261	0.186583	-0.284541	0.561184	1.46701	-0.110179	0.477973	1.42689	-0.154784	0.477498	1.38933	-0.0817861
392	4.02	0.658625	1.56455	-0.367799	0.77814	1.49626	-0.286884	0.781046	1.53172	-0.489529	0.728374	0.992698	-0.467611	0.0327063	0.386352	-0.376552	0.911816	1.30922	-0.466316	0.888353	1.25909	-0.613362	0.940856	1.24798	-0.477672	0.811742	1.26409	-0.71086	0.757393	1.21218	-0.682961	0.0145732	0.184445	-0.465976	0.564486	1.1038	-0.392571	0.361965	0.476001	-0.441139	0.256829	0.479449	-0.491495	0.196284	0.355726	-0.42729	0.608524	0.900904	-0.527498	0.608074	0.769021	-0.510527	0.463179	0.690885	-0.49546	0.0778278	0.160139	-0.405606	0.78588	1.44128	-0.600532	0.722706	1.36109	-0.628526	0.789399	1.3411	-0.666205	0.665591	1.53222	-0.170997	0.73839	1.03233	-0.228506	0.725533	0.236989	-0.288657	0.558682	1.07841	-0.0601897	0.429627	1.23821	-0.0420562	0.493365	1.05204	-0.0522916	0.41221	1.31681	-0.0595015	0.398533	1.30506	-0.138328	0.912973	0.147222	-0.200696	0.558816	1.10329	-0.308531	0.955551	0.52591	-0.247317	0.880769	0.439153	-0.199701	0.881907	0.33729	-0.261891	0.719512	0.930504	-0.155302	0.862755	0.865296	-0.171591	0.86051	0.740494	-0.18355	0.949501	0.174693	-0.282847	0.561556	1.47096	-0.109312	0.478381	1.43266	-0.156562	0.475883	1.3931	-0.0846503
393	4.03	0.660697	1.56732	-0.36523	0.779682	1.49713	-0.28442	0.784093	1.5345	-0.485992	0.73041	0.99566	-0.468574	0.0210998	0.422989	-0.375755	0.911635	1.30499	-0.461622	0.888764	1.259	-0.610625	0.939051	1.24333	-0.474299	0.813347	1.268	-0.708609	0.757432	1.21727	-0.682389	-0.013438	0.221374	-0.459896	0.565656	1.1055	-0.391958	0.357443	0.481283	-0.442701	0.252631	0.493213	-0.492258	0.184444	0.378715	-0.426096	0.611562	0.9032	-0.527693	0.611916	0.770603	-0.510954	0.468062	0.691541	-0.498888	0.0474472	0.193775	-0.398534	0.78921	1.44505	-0.597486	0.725073	1.36624	-0.627251	0.79201	1.34552	-0.664022	0.667028	1.53316	-0.168673	0.73785	1.03179	-0.227928	0.770699	0.199562	-0.290431	0.560114	1.08025	-0.0582323	0.429329	1.23966	-0.0429014	0.49483	1.05329	-0.0522134	0.411551	1.31786	-0.0614979	0.400201	1.30606	-0.140091	0.966571	0.133437	-0.200665	0.559551	1.10441	-0.307889	0.960039	0.515677	-0.244252	0.896779	0.419923	-0.198256	0.91185	0.319537	-0.26101	0.71788	0.927069	-0.154821	0.855005	0.858675	-0.170078	0.853949	0.733028	-0.183629	1.00039	0.167129	-0.281107	0.562397	1.47295	-0.107454	0.47995	1.4354	-0.157721	0.475835	1.39449	-0.086674
394	4.04	0.662593	1.56984	-0.362292	0.780924	1.49711	-0.282229	0.786366	1.5365	-0.483034	0.732757	0.997967	-0.469551	0.0157877	0.460663	-0.3749	0.912085	1.29567	-0.4575	0.88765	1.25548	-0.608445	0.93618	1.23334	-0.472552	0.813108	1.27093	-0.70639	0.755122	1.2218	-0.682155	-0.0379655	0.26082	-0.453703	0.566698	1.10581	-0.391283	0.355268	0.485816	-0.443772	0.251832	0.506335	-0.492937	0.177258	0.402289	-0.425205	0.615668	0.904032	-0.528203	0.616839	0.770863	-0.510957	0.474347	0.690888	-0.501729	0.020865	0.229222	-0.392342	0.791307	1.44812	-0.594669	0.725844	1.37107	-0.625643	0.793045	1.34935	-0.662006	0.668722	1.53311	-0.166141	0.737048	1.03134	-0.227111	0.813831	0.167159	-0.29062	0.563603	1.07965	-0.0557291	0.431091	1.23814	-0.042671	0.498457	1.05194	-0.0519595	0.412916	1.31601	-0.0618523	0.403213	1.30422	-0.1404	1.01577	0.12405	-0.200504	0.560376	1.10418	-0.307359	0.960817	0.503849	-0.241529	0.909785	0.401151	-0.196688	0.938108	0.303838	-0.259604	0.71707	0.923578	-0.154636	0.847118	0.848737	-0.168677	0.844262	0.722212	-0.183456	1.04547	0.164266	-0.279789	0.563193	1.47268	-0.104921	0.482118	1.43457	-0.157937	0.477159	1.39336	-0.0871144
395	4.05	0.664051	1.57156	-0.358939	0.781864	1.49605	-0.280203	0.787674	1.53759	-0.480419	0.735389	0.999248	-0.470365	0.0165806	0.498104	-0.373505	0.912568	1.28166	-0.454467	0.884936	1.24909	-0.60703	0.932198	1.21879	-0.472818	0.811146	1.27278	-0.704324	0.750626	1.22561	-0.681952	-0.0572881	0.302725	-0.449123	0.567802	1.10471	-0.391225	0.355756	0.489282	-0.444412	0.254579	0.518351	-0.493479	0.1738	0.425051	-0.424241	0.620578	0.90337	-0.529268	0.622789	0.769762	-0.511141	0.481794	0.688538	-0.503853	-0.000667997	0.266443	-0.388587	0.791987	1.45032	-0.591969	0.725054	1.37521	-0.623727	0.792484	1.35221	-0.6601	0.670485	1.53187	-0.163346	0.736113	1.03137	-0.226179	0.851429	0.141849	-0.289654	0.56907	1.07668	-0.0526726	0.43463	1.23373	-0.0412914	0.504193	1.04819	-0.0509664	0.41601	1.31155	-0.0604482	0.406993	1.29951	-0.13924	1.05695	0.118785	-0.199707	0.561285	1.10246	-0.307611	0.958447	0.491976	-0.239567	0.9188	0.384706	-0.195038	0.959096	0.291159	-0.257307	0.716524	0.919614	-0.15485	0.839411	0.835411	-0.167687	0.8313	0.708393	-0.183126	1.08191	0.164985	-0.27813	0.563996	1.47025	-0.101973	0.484475	1.4302	-0.157078	0.479519	1.38974	-0.0857532
396	4.06	0.66491	1.57187	-0.355238	0.782565	1.4939	-0.278246	0.788017	1.53754	-0.477649	0.738237	0.999299	-0.470965	0.0225456	0.534126	-0.371582	0.912312	1.26339	-0.453095	0.880744	1.24045	-0.606778	0.927067	1.20045	-0.475426	0.80765	1.27353	-0.70247	0.744267	1.22858	-0.681576	-0.0696129	0.34619	-0.447213	0.569073	1.10221	-0.392065	0.358907	0.491395	-0.444714	0.260612	0.529011	-0.49373	0.173367	0.446266	-0.422873	0.625987	0.901232	-0.530635	0.629715	0.767166	-0.511611	0.490459	0.684198	-0.505602	-0.0163657	0.304917	-0.387163	0.791268	1.45148	-0.589343	0.722976	1.37821	-0.621592	0.790412	1.35362	-0.658205	0.672142	1.52912	-0.160286	0.735183	1.03117	-0.22543	0.879933	0.124117	-0.288815	0.576431	1.07136	-0.0494188	0.43976	1.22665	-0.0387421	0.511947	1.0422	-0.0488613	0.420419	1.30445	-0.0575814	0.411097	1.29208	-0.136543	1.08639	0.115715	-0.19769	0.562078	1.09921	-0.308894	0.95383	0.481302	-0.238225	0.92296	0.371599	-0.193486	0.9734	0.281785	-0.254356	0.715414	0.914002	-0.15494	0.831151	0.819309	-0.167174	0.816431	0.692778	-0.18283	1.10739	0.166734	-0.274491	0.565173	1.46595	-0.0986712	0.486932	1.4228	-0.155222	0.482563	1.38371	-0.0829163
397	4.07	0.665191	1.57026	-0.351334	0.783122	1.4906	-0.276273	0.787534	1.53619	-0.474376	0.741127	0.997998	-0.471293	0.0330094	0.567845	-0.36966	0.910693	1.24143	-0.453823	0.875187	1.23	-0.608009	0.920711	1.17912	-0.480612	0.802773	1.27312	-0.700772	0.736544	1.23051	-0.681037	-0.0742777	0.389449	-0.447668	0.570428	1.09831	-0.393642	0.364414	0.49208	-0.444766	0.269595	0.53826	-0.493704	0.175799	0.465873	-0.421166	0.631645	0.897495	-0.531754	0.63742	0.76294	-0.511902	0.500339	0.677871	-0.507277	-0.026062	0.343275	-0.386855	0.789256	1.45145	-0.586873	0.719858	1.37971	-0.619372	0.78699	1.35336	-0.656325	0.673615	1.52457	-0.157	0.734423	1.0293	-0.225186	0.897114	0.112369	-0.289375	0.585657	1.06375	-0.0462937	0.446445	1.21709	-0.0350502	0.521658	1.03405	-0.0456165	0.425832	1.29452	-0.053648	0.415533	1.28205	-0.132291	1.10207	0.11147	-0.19452	0.562483	1.09459	-0.310944	0.94788	0.472216	-0.237163	0.922127	0.361466	-0.192349	0.980362	0.274791	-0.251372	0.71314	0.905995	-0.154243	0.821809	0.802348	-0.166648	0.802347	0.677554	-0.182686	1.12115	0.166436	-0.268125	0.566955	1.45988	-0.0949596	0.489627	1.41288	-0.152502	0.486056	1.3753	-0.0791282
